# Blender 4.0.2
# www.blender.org
o Cube
v -1.175000 0.000000 2.945000
v -1.175000 2.360000 2.945000
v -1.175000 0.000000 -2.945000
v -1.175000 2.360000 -2.945000
v 1.175000 0.000000 2.945000
v 1.175000 2.360000 2.945000
v 1.175000 0.000000 -2.945000
v 1.175000 2.360000 -2.945000
v -1.175000 0.046781 2.828245
v -1.175000 2.313219 2.828245
v -1.175000 2.313219 -2.828245
v -1.175000 0.046781 -2.828245
v -1.128417 0.046781 -2.945000
v -1.128417 2.313219 -2.945000
v 1.128417 2.313219 -2.945000
v 1.128417 0.046781 -2.945000
v 1.175000 0.046781 -2.828245
v 1.175000 2.313219 -2.828245
v 1.175000 2.313219 2.828245
v 1.175000 0.046781 2.828245
v 1.128417 0.046781 2.945000
v 1.128417 2.313219 2.945000
v -1.128417 2.313219 2.945000
v -1.128417 0.046781 2.945000
v -1.128417 0.000000 -2.828245
v 1.128417 0.000000 -2.828245
v 1.128417 0.000000 2.828245
v -1.128417 0.000000 2.828245
v 1.128417 2.360000 -2.828245
v -1.128417 2.360000 -2.828245
v -1.128417 2.360000 2.828245
v 1.128417 2.360000 2.828245
v -1.137941 0.046781 2.828245
v -1.137941 2.313219 2.828245
v -1.137941 0.046781 -2.828245
v -1.137941 2.313219 -2.828245
v -1.128417 2.313219 -2.852115
v -1.128417 0.046781 -2.852115
v 1.128417 0.046781 -2.852115
v 1.128417 2.313219 -2.852115
v 1.137941 2.313219 -2.828245
v 1.137941 0.046781 -2.828245
v 1.137941 0.046781 2.828245
v 1.137941 2.313219 2.828245
v 1.128417 2.313219 2.852115
v 1.128417 0.046781 2.852115
v -1.128417 0.046781 2.852115
v -1.128417 2.313219 2.852115
v 1.128417 0.037217 -2.828245
v -1.128417 0.037217 -2.828245
v -1.128417 0.037217 2.828245
v 1.128417 0.037217 2.828245
v -1.128417 2.322783 -2.828245
v 1.128417 2.322783 -2.828245
v 1.128417 2.322783 2.828245
v -1.128417 2.322783 2.828245
vn -1.0000 -0.0000 -0.0000
vn -0.0000 1.0000 -0.0000
vn -0.0000 -0.0000 1.0000
vn 1.0000 -0.0000 -0.0000
vn -0.0000 -0.0000 -1.0000
vn -0.0000 -1.0000 -0.0000
vt 0.315031 0.658938
vt 0.315031 0.987967
vt 0.316222 0.655176
vt 0.011903 0.655176
vt 0.712399 0.013173
vt 0.712399 0.302729
vt 0.713560 0.010708
vt 0.015156 0.010708
vt 0.011903 0.988379
vt 0.015156 0.304105
vt 0.000740 0.004652
vt 0.000740 0.310161
vt 0.727976 0.310161
vt 0.713560 0.304105
vt 0.727976 0.004652
vt 0.005621 0.648298
vt 0.005621 0.995256
vt 0.322504 0.995256
vt 0.316222 0.988379
vt 0.322504 0.648298
vt 0.726817 0.007197
vt 0.726817 0.308706
vt -0.000533 0.308706
vt 0.013885 0.302729
vt -0.000533 0.007197
vt 0.013885 0.013173
vt 0.321414 0.652147
vt 0.321414 0.994759
vt -0.000553 0.994759
vt 0.005829 0.987967
vt -0.000553 0.652147
vt 0.005829 0.658938
vt 0.734230 0.638182
vt 0.734230 0.349514
vt 0.719773 0.355236
vt 0.719773 0.632460
vt 0.004927 0.349514
vt 0.019384 0.355236
vt 0.004927 0.638182
vt 0.019384 0.632460
vt 0.730546 0.350356
vt 0.730546 0.637340
vt 0.716284 0.631651
vt 0.716284 0.356045
vt 0.011072 0.637340
vt 0.025334 0.631651
vt 0.011072 0.350356
vt 0.025334 0.356045
s 0
f 21/1/1 22/2/1 45/2/1 46/1/1
f 16/3/2 13/4/2 38/4/2 39/3/2
f 17/5/3 18/6/3 41/6/3 42/5/3
f 12/7/2 9/8/2 33/8/2 35/7/2
f 13/4/4 14/9/4 37/9/4 38/4/4
f 9/8/5 10/10/5 34/10/5 33/8/5
f 1/11/1 2/12/1 10/10/1 9/8/1
f 2/12/1 4/13/1 11/14/1 10/10/1
f 4/13/1 3/15/1 12/7/1 11/14/1
f 3/15/1 1/11/1 9/8/1 12/7/1
f 3/16/5 4/17/5 14/9/5 13/4/5
f 4/17/5 8/18/5 15/19/5 14/9/5
f 8/18/5 7/20/5 16/3/5 15/19/5
f 7/20/5 3/16/5 13/4/5 16/3/5
f 7/21/4 8/22/4 18/6/4 17/5/4
f 8/22/4 6/23/4 19/24/4 18/6/4
f 6/23/4 5/25/4 20/26/4 19/24/4
f 5/25/4 7/21/4 17/5/4 20/26/4
f 5/27/3 6/28/3 22/2/3 21/1/3
f 6/28/3 2/29/3 23/30/3 22/2/3
f 2/29/3 1/31/3 24/32/3 23/30/3
f 1/31/3 5/27/3 21/1/3 24/32/3
f 3/33/6 7/34/6 26/35/6 25/36/6
f 7/34/6 5/37/6 27/38/6 26/35/6
f 5/37/6 1/39/6 28/40/6 27/38/6
f 1/39/6 3/33/6 25/36/6 28/40/6
f 8/41/2 4/42/2 30/43/2 29/44/2
f 4/42/2 2/45/2 31/46/2 30/43/2
f 2/45/2 6/47/2 32/48/2 31/46/2
f 6/47/2 8/41/2 29/44/2 32/48/2
f 33/8/1 34/10/1 36/14/1 35/7/1
f 38/4/5 37/9/5 40/19/5 39/3/5
f 42/5/4 41/6/4 44/24/4 43/26/4
f 46/1/3 45/2/3 48/30/3 47/32/3
f 50/36/6 49/35/6 52/38/6 51/40/6
f 54/44/2 53/43/2 56/46/2 55/48/2
f 10/10/6 11/14/6 36/14/6 34/10/6
f 20/26/2 17/5/2 42/5/2 43/26/2
f 25/36/3 26/35/3 49/35/3 50/36/3
f 14/9/6 15/19/6 40/19/6 37/9/6
f 24/32/2 21/1/2 46/1/2 47/32/2
f 29/44/3 30/43/3 53/43/3 54/44/3
f 11/14/3 12/7/3 35/7/3 36/14/3
f 18/6/6 19/24/6 44/24/6 41/6/6
f 28/40/4 25/36/4 50/36/4 51/40/4
f 15/19/1 16/3/1 39/3/1 40/19/1
f 22/2/6 23/30/6 48/30/6 45/2/6
f 32/48/1 29/44/1 54/44/1 55/48/1
f 19/24/5 20/26/5 43/26/5 44/24/5
f 26/35/1 27/38/1 52/38/1 49/35/1
f 23/30/4 24/32/4 47/32/4 48/30/4
f 30/43/4 31/46/4 56/46/4 53/43/4
f 27/38/5 28/40/5 51/40/5 52/38/5
f 31/46/5 32/48/5 55/48/5 56/46/5
