# Blender 4.1.1
# www.blender.org
o fence
v -1.500000 0.071596 -0.000000
v 1.500000 0.071596 -0.000000
v -1.500000 2.071596 0.000000
v 1.500000 2.071596 0.000000
vn -0.0000 -0.0000 1.0000
vt 0.872070 0.000000
vt 0.004883 1.000000
vt 0.004883 0.000000
vt 0.872070 1.000000
s 0
f 2/1/1 3/2/1 1/3/1
f 2/1/1 4/4/1 3/2/1
o left
v -1.551014 0.000000 0.051014
v -1.551014 2.285087 0.051014
v -1.551014 0.000000 -0.051014
v -1.551014 2.285087 -0.051014
v -1.448986 0.000000 0.051014
v -1.448986 2.285087 0.051014
v -1.448986 0.000000 -0.051014
v -1.448986 2.285087 -0.051014
vn -1.0000 -0.0000 -0.0000
vn -0.0000 -0.0000 -1.0000
vn 1.0000 -0.0000 -0.0000
vn -0.0000 -0.0000 1.0000
vn -0.0000 -1.0000 -0.0000
vn -0.0000 1.0000 -0.0000
vt 0.906488 0.991595
vt 0.875936 0.008405
vt 0.906488 0.008405
vt 0.998144 0.991595
vt 0.967592 0.008405
vt 0.998144 0.008405
vt 0.967592 0.991595
vt 0.937040 0.008405
vt 0.937040 0.991595
vt 0.969282 0.530149
vt 0.917430 0.426445
vt 0.917430 0.530149
vt 0.924155 0.575606
vt 0.981159 0.461599
vt 0.981159 0.575606
vt 0.875936 0.991595
vt 0.969282 0.426445
vt 0.924155 0.461599
s 0
f 6/5/2 7/6/2 5/7/2
f 8/8/3 11/9/3 7/10/3
f 12/11/4 9/12/4 11/9/4
f 10/13/5 5/7/5 9/12/5
f 11/14/6 5/15/6 7/16/6
f 8/17/7 10/18/7 12/19/7
f 6/5/2 8/20/2 7/6/2
f 8/8/3 12/11/3 11/9/3
f 12/11/4 10/13/4 9/12/4
f 10/13/5 6/5/5 5/7/5
f 11/14/6 9/21/6 5/15/6
f 8/17/7 6/22/7 10/18/7
o right
v 1.448986 0.000000 0.051014
v 1.448986 2.285087 0.051014
v 1.448986 0.000000 -0.051014
v 1.448986 2.285087 -0.051014
v 1.551014 0.000000 0.051014
v 1.551014 2.285087 0.051014
v 1.551014 0.000000 -0.051014
v 1.551014 2.285087 -0.051014
vn -1.0000 -0.0000 -0.0000
vn -0.0000 -0.0000 -1.0000
vn 1.0000 -0.0000 -0.0000
vn -0.0000 -0.0000 1.0000
vn -0.0000 -1.0000 -0.0000
vn -0.0000 1.0000 -0.0000
vt 0.906488 0.991595
vt 0.875936 0.008405
vt 0.906488 0.008405
vt 0.998144 0.991595
vt 0.967592 0.008405
vt 0.998144 0.008405
vt 0.967592 0.991595
vt 0.937040 0.008405
vt 0.937040 0.991595
vt 0.969282 0.530149
vt 0.917430 0.426445
vt 0.917430 0.530149
vt 0.924155 0.575606
vt 0.981159 0.461599
vt 0.981159 0.575606
vt 0.875936 0.991595
vt 0.969282 0.426445
vt 0.924155 0.461599
s 0
f 14/23/8 15/24/8 13/25/8
f 16/26/9 19/27/9 15/28/9
f 20/29/10 17/30/10 19/27/10
f 18/31/11 13/25/11 17/30/11
f 19/32/12 13/33/12 15/34/12
f 16/35/13 18/36/13 20/37/13
f 14/23/8 16/38/8 15/24/8
f 16/26/9 20/29/9 19/27/9
f 20/29/10 18/31/10 17/30/10
f 18/31/11 14/23/11 13/25/11
f 19/32/12 17/39/12 13/33/12
f 16/35/13 14/40/13 18/36/13
