# Blender 4.0.2
# www.blender.org
o pole
v 0.000000 0.000000 -0.300000
v 0.000000 0.405617 -0.300000
v 0.212132 0.000000 -0.212132
v 0.212132 0.405617 -0.212132
v 0.300000 0.000000 0.000000
v 0.300000 0.405617 0.000000
v 0.212132 0.000000 0.212132
v 0.212132 0.405617 0.212132
v 0.000000 0.000000 0.300000
v 0.000000 0.405617 0.300000
v -0.212132 0.000000 0.212132
v -0.212132 0.405617 0.212132
v -0.300000 0.000000 0.000000
v -0.300000 0.405617 0.000000
v -0.212132 0.000000 -0.212132
v -0.212132 0.405617 -0.212132
v 0.114250 0.584581 -0.114250
v 0.000000 0.584581 -0.161574
v 0.161574 0.584581 -0.000000
v 0.114250 0.584581 0.114250
v 0.000000 0.584581 0.161574
v -0.114250 0.584581 0.114250
v -0.161574 0.584581 -0.000000
v -0.114250 0.584581 -0.114250
v 0.114250 6.000000 -0.114250
v 0.000000 6.000000 -0.161574
v 0.161574 6.000000 -0.000000
v 0.114250 6.000000 0.114250
v 0.000000 6.000000 0.161574
v -0.114250 6.000000 0.114250
v -0.161574 6.000000 -0.000000
v -0.114250 6.000000 -0.114250
vn 0.3827 -0.0000 -0.9239
vn 0.9239 -0.0000 -0.3827
vn 0.9239 -0.0000 0.3827
vn 0.3827 -0.0000 0.9239
vn -0.3827 -0.0000 0.9239
vn -0.9239 -0.0000 0.3827
vn 0.7517 0.5814 -0.3114
vn -0.9239 -0.0000 -0.3827
vn -0.3827 -0.0000 -0.9239
vn -0.0000 -1.0000 -0.0000
vn -0.3114 0.5814 0.7517
vn -0.3114 0.5814 -0.7517
vn 0.3114 0.5814 -0.7517
vn 0.7517 0.5814 0.3114
vn -0.7517 0.5814 0.3114
vn 0.3114 0.5814 0.7517
vn -0.7517 0.5814 -0.3114
vn -0.0000 1.0000 -0.0000
vt 0.391845 0.310734
vt 0.391845 0.494608
vt 0.345877 0.494608
vt 0.345877 0.310734
vt 0.299909 0.494608
vt 0.299909 0.310734
vt 0.253941 0.494608
vt 0.253941 0.310734
vt 0.207972 0.494608
vt 0.207972 0.310734
vt 0.162004 0.494608
vt 0.162004 0.310734
vt 0.116036 0.494608
vt 0.116036 0.310734
vt 0.070067 0.494608
vt 0.070067 0.310734
vt 0.024099 0.494608
vt 0.024099 0.310734
vt 0.299909 0.307057
vt 0.362318 0.281206
vt 0.388168 0.218798
vt 0.362318 0.156389
vt 0.299909 0.130539
vt 0.237500 0.156389
vt 0.211650 0.218798
vt 0.237500 0.281206
vt 0.326142 0.646069
vt 0.367434 0.646069
vt 0.367434 0.931575
vt 0.326142 0.931575
vt 0.408726 0.931575
vt 0.119682 0.931575
vt 0.160974 0.931575
vt 0.202266 0.931575
vt 0.243558 0.931575
vt 0.284850 0.931575
vt 0.037098 0.646069
vt 0.078390 0.646069
vt 0.078390 0.931575
vt 0.037098 0.931575
vt 0.119682 0.646069
vt 0.160974 0.646069
vt 0.202266 0.646069
vt 0.243558 0.646069
vt 0.284850 0.646069
s 0
f 1/1/1 2/2/1 4/3/1 3/4/1
f 3/4/2 4/3/2 6/5/2 5/6/2
f 5/6/3 6/5/3 8/7/3 7/8/3
f 7/8/4 8/7/4 10/9/4 9/10/4
f 9/10/5 10/9/5 12/11/5 11/12/5
f 11/12/6 12/11/6 14/13/6 13/14/6
f 6/5/7 4/3/7 17/3/7 19/5/7
f 13/14/8 14/13/8 16/15/8 15/16/8
f 15/16/9 16/15/9 2/17/9 1/18/9
f 1/19/10 3/20/10 5/21/10 7/22/10 9/23/10 11/24/10 13/25/10 15/26/10
f 17/27/1 18/28/1 26/29/1 25/30/1
f 12/11/11 10/9/11 21/9/11 22/11/11
f 2/17/12 16/15/12 24/15/12 18/17/12
f 4/3/13 2/2/13 18/2/13 17/3/13
f 8/7/14 6/5/14 19/5/14 20/7/14
f 14/13/15 12/11/15 22/11/15 23/13/15
f 10/9/16 8/7/16 20/7/16 21/9/16
f 16/15/17 14/13/17 23/13/17 24/15/17
f 25/30/18 26/29/18 32/31/18 31/32/18 30/33/18 29/34/18 28/35/18 27/36/18
f 18/37/9 24/38/9 32/39/9 26/40/9
f 23/41/6 22/42/6 30/33/6 31/32/6
f 21/43/4 20/44/4 28/35/4 29/34/4
f 19/45/2 17/27/2 25/30/2 27/36/2
f 24/38/8 23/41/8 31/32/8 32/39/8
f 22/42/5 21/43/5 29/34/5 30/33/5
f 20/44/3 19/45/3 27/36/3 28/35/3
o head_thing
v -0.266271 5.994343 0.266271
v -0.266271 6.243682 0.036970
v -0.266271 5.994343 -0.492492
v -0.266271 6.198879 -0.492492
v 0.266271 5.994343 0.266271
v 0.266271 6.243682 0.036970
v 0.266271 5.994343 -0.492492
v 0.266271 6.198879 -0.492492
v -0.191511 6.189895 2.112291
v -0.232434 6.368439 2.071368
v 0.232434 6.368439 2.071368
v 0.191511 6.189895 2.112291
v -0.191511 6.189895 2.803691
v -0.232434 6.368439 2.803691
v 0.232434 6.368439 2.803691
v 0.191511 6.189895 2.803691
v -0.093986 6.189895 2.923779
v -0.191511 6.189895 2.826254
v -0.232434 6.368439 2.843205
v -0.110937 6.368439 2.964702
v 0.110937 6.368439 2.964702
v 0.232434 6.368439 2.843205
v 0.191511 6.189895 2.826254
v 0.093986 6.189895 2.923779
v -0.232434 6.189895 2.071368
v 0.232434 6.189895 2.071368
v 0.232434 6.189895 2.803691
v -0.232434 6.189895 2.803691
v -0.232434 6.189895 2.843205
v -0.110937 6.189895 2.964702
v 0.110937 6.189895 2.964702
v 0.232434 6.189895 2.843205
v -0.141602 6.057727 2.767939
v 0.141602 6.057727 2.767939
v -0.141602 6.057727 2.256721
v 0.141602 6.057727 2.256721
v -0.141602 6.057727 2.784622
v -0.069493 6.057727 2.856732
v 0.069493 6.057727 2.856732
v 0.141602 6.057727 2.784622
vn -1.0000 -0.0000 -0.0000
vn -0.0000 -0.0000 -1.0000
vn 1.0000 -0.0000 -0.0000
vn -0.9998 0.0090 0.0169
vn -0.0000 -1.0000 -0.0000
vn -0.0000 0.9964 -0.0843
vn -0.9355 -0.3533 -0.0000
vn -0.0000 -0.9942 0.1077
vn -0.0000 0.9981 -0.0612
vn 0.9998 0.0090 0.0169
vn -0.0000 1.0000 -0.0000
vn 0.9355 -0.3533 -0.0000
vn -0.0000 -0.0000 1.0000
vn -0.7071 -0.0000 0.7071
vn 0.7071 -0.0000 0.7071
vn -0.6350 -0.4398 0.6350
vn -0.0000 -0.4524 0.8918
vn 0.6350 -0.4398 0.6350
vn -0.0000 -0.7377 -0.6751
vt 0.156730 0.155988
vt 0.265200 0.155988
vt 0.265200 0.264459
vt 0.156730 0.264459
vt 0.265200 0.372929
vt 0.156730 0.372929
vt 0.265200 0.481399
vt 0.156730 0.481399
vt 0.264297 0.588102
vt 0.154532 0.588102
vt 0.048259 0.372929
vt 0.048259 0.481399
vt 0.373670 0.372929
vt 0.373670 0.481399
vt 0.600473 0.984371
vt 0.601173 0.984371
vt 0.602284 0.973684
vt 0.601766 0.973684
vt 0.044768 0.917395
vt 0.154532 0.917395
vt 0.264297 0.917395
vt 0.374061 0.917395
vt 0.345373 0.917395
vt 0.292984 0.917395
vt 0.154532 0.946083
vt 0.264297 0.946083
vt 0.264297 0.998471
vt 0.154532 0.998471
vt 0.144870 0.917395
vt 0.054431 0.917395
vt 0.054431 0.917395
vt 0.077458 0.917395
vt 0.073456 0.917395
vt 0.121842 0.917395
vt 0.125845 0.917395
vt 0.601091 0.990631
vt 0.609886 0.990631
vt 0.609886 0.974754
vt 0.601091 0.974754
vt 0.609886 0.974236
vt 0.607647 0.971996
vt 0.603330 0.971996
vt 0.601091 0.974236
vt 0.597444 0.984371
vt 0.599526 0.973684
vt 0.622646 0.984371
vt 0.618161 0.973684
vt 0.608408 0.984371
vt 0.602570 0.984371
vt 0.603330 0.973684
vt 0.607647 0.973684
vt 0.599541 0.984371
vt 0.611436 0.984371
vt 0.609886 0.973684
vt 0.601091 0.973684
s 0
f 33/46/19 34/47/19 36/48/19 35/49/19
f 35/49/20 36/48/20 40/50/20 39/51/20
f 39/51/21 40/50/21 38/52/21 37/53/21
f 34/54/22 33/55/22 57/55/22 42/54/22
f 35/56/23 39/51/23 37/53/23 33/57/23
f 40/50/24 36/58/24 34/59/24 38/52/24
f 50/60/25 45/61/25 65/62/25 69/63/25
f 33/64/26 37/65/26 58/65/26 57/64/26
f 38/66/27 34/67/27 42/67/27 43/66/27
f 37/65/28 38/66/28 43/66/28 58/65/28
f 59/65/21 47/66/21 54/66/21 64/65/21
f 42/54/19 57/55/19 60/55/19 46/54/19
f 43/66/29 42/67/29 46/67/29 47/66/29
f 58/65/21 43/66/21 47/66/21 59/65/21
f 48/61/30 55/60/30 72/63/30 66/62/30
f 47/66/29 46/67/29 51/67/29 52/68/29 53/69/29 54/66/29
f 63/70/31 53/71/31 52/72/31 62/73/31
f 62/55/32 52/54/32 51/54/32 61/55/32
f 53/71/33 63/70/33 64/65/33 54/66/33
f 46/54/19 60/55/19 61/55/19 51/54/19
f 44/74/23 41/75/23 57/64/23 58/65/23
f 48/74/23 44/74/23 58/65/23 59/65/23
f 41/75/23 45/76/23 60/64/23 57/64/23
f 50/75/23 49/77/23 62/78/23 61/64/23
f 56/79/23 55/74/23 64/65/23 63/80/23
f 45/76/23 50/75/23 61/64/23 60/64/23
f 49/77/23 56/79/23 63/80/23 62/78/23
f 55/74/23 48/74/23 59/65/23 64/65/23
f 67/81/23 68/82/23 66/83/23 65/84/23
f 65/84/23 66/83/23 72/85/23 71/86/23 70/87/23 69/88/23
f 49/89/34 50/60/34 69/63/34 70/90/34
f 44/91/30 48/61/30 66/62/30 68/92/30
f 56/93/35 49/94/35 70/95/35 71/96/35
f 55/60/36 56/89/36 71/90/36 72/63/36
f 45/61/25 41/91/25 67/92/25 65/62/25
f 41/97/37 44/98/37 68/99/37 67/100/37
o light
v 0.000000 4.008522 0.145131
v 0.000000 6.125613 2.224588
v 1.313130 4.008522 0.847202
v 0.173967 6.125613 2.317600
v 1.857046 4.008522 2.542152
v 0.246026 6.125613 2.542152
v 1.313130 4.008522 4.237101
v 0.173967 6.125613 2.766703
v 0.000000 4.008522 4.939172
v 0.000000 6.125613 2.859715
v -1.313130 4.008522 4.237101
v -0.173967 6.125613 2.766703
v -1.857046 4.008522 2.542152
v -0.246026 6.125613 2.542152
v -1.313130 4.008522 0.847202
v -0.173967 6.125613 2.317600
vn 0.3564 0.6547 -0.6666
vn 0.7710 0.5867 -0.2474
vn 0.7710 0.5867 0.2474
vn 0.3564 0.6547 0.6666
vn -0.3564 0.6547 0.6666
vn -0.7710 0.5867 0.2474
vn -0.7710 0.5867 -0.2474
vn -0.3564 0.6547 -0.6666
vt 0.901669 0.598640
vt 0.901669 0.991759
vt 0.860593 0.991759
vt 0.860593 0.598640
vt 0.803782 0.991759
vt 0.803782 0.598640
vt 0.746971 0.991759
vt 0.746971 0.598640
vt 0.705896 0.991759
vt 0.705896 0.598640
vt 0.664821 0.991759
vt 0.664821 0.598640
vt 0.608010 0.991759
vt 0.608010 0.598640
vt 0.551199 0.991759
vt 0.551199 0.598640
vt 0.510124 0.991759
vt 0.510124 0.598640
s 0
f 73/101/38 74/102/38 76/103/38 75/104/38
f 75/104/39 76/103/39 78/105/39 77/106/39
f 77/106/40 78/105/40 80/107/40 79/108/40
f 79/108/41 80/107/41 82/109/41 81/110/41
f 81/110/42 82/109/42 84/111/42 83/112/42
f 83/112/43 84/111/43 86/113/43 85/114/43
f 85/114/44 86/113/44 88/115/44 87/116/44
f 87/116/45 88/115/45 74/117/45 73/118/45
