# Blender v3.2.1 OBJ File: ''
# www.blender.org
mtllib monitor.mtl
o Monitor_Cube.004
v -1.088798 0.210564 1.000000
v -0.873653 1.789436 1.000000
v -0.183886 0.319986 -1.000000
v -0.097734 1.058663 -1.000000
v 1.088798 0.210564 1.000000
v 0.873653 1.789436 1.000000
v 0.925980 0.319986 -1.000000
v 0.839828 1.058663 -1.000000
v -0.702036 0.000000 0.000000
v -1.057470 1.850843 0.000000
v 0.702036 0.000000 0.000000
v 1.057470 1.850843 0.000000
v -0.702036 0.000000 0.621017
v -1.057470 2.000000 1.000000
v 1.057470 2.000000 1.000000
v 0.702036 0.000000 0.621017
v -0.921649 0.336214 0.806853
v -0.740747 1.663786 0.806853
v 0.740747 1.663786 0.806853
v 0.921649 0.336214 0.806853
v -0.951791 0.309901 0.806853
v -0.763718 1.690099 0.806853
v 0.763718 1.690099 0.806853
v 0.951791 0.309901 0.806853
v -1.057470 1.378649 -1.000000
v -0.702036 0.000000 -0.621017
v 0.702036 0.000000 -0.621017
v 1.057470 1.378649 -1.000000
v -0.097734 1.058663 -0.931193
v -0.183886 0.319986 -0.931193
v 0.925980 0.319986 -0.931193
v 0.839828 1.058663 -0.931193
v -1.330000 0.000000 0.000000
v -1.330000 0.000000 1.000000
v 1.330000 0.000000 -1.000000
v -1.330000 0.000000 -1.000000
v 1.330000 0.000000 0.000000
v 1.330000 0.000000 1.000000
v -0.702036 -0.310922 0.000000
v -0.702036 -0.310922 0.621017
v 0.702036 -0.310922 -0.621017
v -0.702036 -0.310922 -0.621017
v 0.702036 -0.310922 0.000000
v 0.702036 -0.310922 0.621017
v -0.980105 -0.437734 0.000000
v -0.980105 -0.437734 0.866995
v 0.980105 -0.437734 -0.866995
v -0.980105 -0.437734 -0.866995
v 0.980105 -0.437734 0.000000
v 0.980105 -0.437734 0.866995
v -0.980105 -0.532114 0.000000
v -0.980105 -0.532114 0.866995
v 0.980105 -0.532114 -0.866995
v -0.980105 -0.532114 -0.866995
v 0.980105 -0.532114 0.000000
v 0.980105 -0.532114 0.866995
vt 0.421490 0.374156
vt 0.421469 0.635371
vt 0.280789 0.569105
vt 0.280874 0.374265
vt 0.103872 0.879933
vt 0.103872 0.748094
vt 0.113535 0.748094
vt 0.113535 0.879933
vt 0.702806 0.579473
vt 0.702785 0.318259
vt 0.843421 0.297401
vt 0.843421 0.579582
vt 0.264621 0.680259
vt 0.264621 0.901369
vt 0.237586 0.886951
vt 0.237586 0.693664
vt 0.684239 0.816124
vt 0.771558 0.816124
vt 0.805918 0.855225
vt 0.684012 0.855225
vt 0.703559 0.297401
vt 0.703559 0.000000
vt 0.844433 0.000000
vt 0.844433 0.297401
vt 0.562105 0.297401
vt 0.562105 0.000000
vt 0.193864 0.768926
vt 0.193864 0.571487
vt 0.237586 0.571487
vt 0.237586 0.768926
vt 0.562190 0.579365
vt 0.562105 0.384525
vt 0.562105 0.374047
vt 0.562105 0.656228
vt 0.029609 0.340129
vt 0.251629 0.309876
vt 0.281238 0.335724
vt 0.000000 0.374047
vt 0.251629 0.064171
vt 0.029609 0.033918
vt 0.000000 0.000000
vt 0.281238 0.038323
vt 0.996300 0.843024
vt 0.809618 0.817586
vt 0.809618 0.609259
vt 0.996300 0.583821
vt 0.237586 0.680259
vt 0.237586 0.374047
vt 0.264566 0.393313
vt 0.264566 0.660993
vt 0.914162 0.297401
vt 0.914162 0.518511
vt 0.887126 0.505106
vt 0.887126 0.311819
vt 0.552142 0.656228
vt 0.552142 0.901933
vt 0.524300 0.886474
vt 0.524300 0.671687
vt 0.805918 0.606029
vt 1.000000 0.579582
vt 1.000000 0.847262
vt 0.805918 0.820816
vt 0.148868 0.547327
vt 0.044996 0.535213
vt 0.000000 0.374047
vt 0.193864 0.412370
vt 0.044996 0.691281
vt 0.000000 0.748094
vt 0.148868 0.679167
vt 0.193864 0.709771
vt 0.000000 0.748094
vt 0.103872 0.760209
vt 0.103872 0.892048
vt 0.000000 0.904163
vt 0.132886 0.748094
vt 0.132886 0.851596
vt 0.123210 0.851606
vt 0.123210 0.748104
vt 0.113535 0.851596
vt 0.113535 0.748094
vt 0.123210 0.748104
vt 0.123210 0.851606
vt 0.552142 0.812297
vt 0.552142 0.656228
vt 0.561817 0.656228
vt 0.561817 0.812297
vt 0.421672 0.285743
vt 0.508883 0.285743
vt 0.421672 0.374047
vt 0.334460 0.088304
vt 0.334460 0.285743
vt 0.281238 0.374047
vt 0.281238 0.000000
vt 0.421672 0.088304
vt 0.421672 0.000000
vt 0.508883 0.088304
vt 0.562105 0.000000
vt 0.888139 0.087333
vt 0.888139 0.174658
vt 0.844434 0.174649
vt 0.844434 0.087325
vt 0.193864 0.571487
vt 0.193864 0.374047
vt 0.237586 0.374047
vt 0.237586 0.571487
vt 0.887126 0.384726
vt 0.887126 0.472051
vt 0.843421 0.472059
vt 0.843421 0.384734
vt 0.888139 0.000009
vt 0.844434 0.000000
vt 0.887126 0.297401
vt 0.843421 0.297410
vt 0.914677 0.121913
vt 0.914677 0.243826
vt 0.901410 0.243829
vt 0.901410 0.121916
vt 0.771558 0.618684
vt 0.805918 0.579582
vt 0.684239 0.618684
vt 0.684012 0.579582
vt 0.596919 0.618684
vt 0.596919 0.816124
vt 0.562105 0.855225
vt 0.562105 0.579582
vt 0.280790 0.931871
vt 0.280790 0.656228
vt 0.402545 0.656228
vt 0.524300 0.656228
vt 0.524300 0.931871
vt 0.402545 0.931871
vt 0.280789 0.656231
vt 0.280789 0.778144
vt 0.267523 0.778141
vt 0.267523 0.656228
vt 0.914677 0.000000
vt 0.901410 0.000003
vt 0.280789 0.900057
vt 0.267523 0.900054
vt 0.264566 0.649690
vt 0.264566 0.374047
vt 0.277838 0.374047
vt 0.277838 0.649690
vt 0.888139 0.275643
vt 0.888139 0.000000
vt 0.901410 0.000000
vt 0.901410 0.275643
vn -0.9853 0.1663 -0.0393
vn 0.0000 -1.0000 0.0000
vn 0.9901 0.1401 -0.0105
vn -0.8371 -0.1141 0.5351
vn 0.4149 0.9099 0.0000
vn 0.0000 0.9891 -0.1475
vn 0.0000 0.9043 -0.4270
vn 0.0000 0.0000 1.0000
vn 0.9853 0.1663 -0.0393
vn -0.9901 0.1401 -0.0105
vn 0.0000 0.8893 0.4574
vn 0.8371 -0.1141 0.5351
vn 0.0000 -0.8893 0.4574
vn 0.0000 0.0000 -1.0000
vn 0.9933 -0.1158 0.0000
vn -0.9933 -0.1158 0.0000
vn -0.0000 1.0000 0.0000
vn 1.0000 0.0000 0.0000
vn -1.0000 0.0000 0.0000
vn 0.0000 0.8888 0.4582
vn -0.4149 0.9099 0.0000
vn 0.0000 0.8888 -0.4582
usemtl Material.002
s off
f 33/1/1 10/2/1 25/3/1 36/4/1
f 4/5/2 8/6/2 32/7/2 29/8/2
f 37/9/3 12/10/3 15/11/3 38/12/3
f 5/13/4 6/14/4 23/15/4 24/16/4
f 43/17/5 44/18/5 50/19/5 49/20/5
f 12/21/6 10/22/6 14/23/6 15/24/6
f 28/25/7 25/26/7 10/22/7 12/21/7
f 16/27/8 13/28/8 40/29/8 44/30/8
f 35/31/9 28/32/9 12/10/9 37/9/9
f 34/33/10 14/34/10 10/2/10 33/1/10
f 1/35/8 2/36/8 14/37/8 34/38/8
f 6/39/8 5/40/8 38/41/8 15/42/8
f 5/40/8 1/35/8 34/38/8 38/41/8
f 2/36/8 6/39/8 15/42/8 14/37/8
f 20/43/8 19/44/8 18/45/8 17/46/8
f 1/47/11 5/48/11 24/49/11 21/50/11
f 2/51/12 1/52/12 21/53/12 22/54/12
f 6/55/13 2/56/13 22/57/13 23/58/13
f 17/46/8 18/45/8 22/59/8 21/60/8
f 19/44/8 20/43/8 24/61/8 23/62/8
f 20/43/8 17/46/8 21/60/8 24/61/8
f 18/45/8 19/44/8 23/62/8 22/59/8
f 4/63/14 3/64/14 36/65/14 25/66/14
f 3/64/14 7/67/14 35/68/14 36/65/14
f 8/69/14 4/63/14 25/66/14 28/70/14
f 7/67/14 8/69/14 28/70/14 35/68/14
f 30/71/14 29/72/14 32/73/14 31/74/14
f 3/75/15 4/76/15 29/77/15 30/78/15
f 8/79/16 7/80/16 31/81/16 32/82/16
f 7/83/17 3/84/17 30/85/17 31/86/17
f 9/87/2 13/88/2 34/33/2 33/89/2
f 27/90/2 26/91/2 36/92/2 35/93/2
f 11/94/2 27/90/2 35/93/2 37/95/2
f 13/88/2 16/96/2 38/97/2 34/33/2
f 26/91/2 9/87/2 33/89/2 36/92/2
f 16/96/2 11/94/2 37/95/2 38/97/2
f 11/98/18 16/99/18 44/100/18 43/101/18
f 26/102/14 27/103/14 41/104/14 42/105/14
f 9/106/19 26/107/19 42/108/19 39/109/19
f 27/110/18 11/98/18 43/101/18 41/111/18
f 13/112/19 9/106/19 39/109/19 40/113/19
f 45/114/19 48/115/19 54/116/19 51/117/19
f 44/18/20 40/118/20 46/119/20 50/19/20
f 40/118/21 39/120/21 45/121/21 46/119/21
f 42/122/22 41/123/22 47/124/22 48/125/22
f 39/120/21 42/122/21 48/125/21 45/121/21
f 41/123/5 43/17/5 49/20/5 47/124/5
f 54/126/2 53/127/2 55/128/2 56/129/2 52/130/2 51/131/2
f 47/132/18 49/133/18 55/134/18 53/135/18
f 46/136/19 45/114/19 51/117/19 52/137/19
f 49/133/18 50/138/18 56/139/18 55/134/18
f 50/140/8 46/141/8 52/142/8 56/143/8
f 48/144/14 47/145/14 53/146/14 54/147/14
